<svg xmlns="http://www.w3.org/2000/svg" viewBox="0 0 2085.36 2515.88" shape-rendering="geometricPrecision" text-rendering="geometricPrecision" image-rendering="optimizeQuality" fill-rule="evenodd" clip-rule="evenodd"><defs><style>.fil1{fill:#0cf}.fil0{fill:#369}</style></defs><g id="Layer_x0020_1"><g id="_105553167857344"><path class="fil0" d="M1936.46 421.88L1228.37 9.41c-47.65-27.76-123.58 9.07-123.42 68.7l1.21 420.55c.27 96.63 61.39 202.35 145.95 249.08l191.43 105.79 450.17-259.91c51.1-29.5 71.17-104.8 42.75-171.75z"/><path class="fil1" d="M1956.63 431.97c65.97 48.97 128.73 163.81 128.73 248.71v889c0 102.22-74.43 208.73-162.96 259.84l-652.13 376.51c-73.29 42.3-143.94 2.93-143.94-72.54v-896.85c0-124.32 63.59-214.94 216.69-303.34l570.86-329.57c51.1-29.5 71.17-104.8 42.75-171.75zm128.73 1263.6v162.2c0 102.21-74.43 208.73-162.96 259.84l-652.13 376.51c-73.29 42.3-143.94 2.93-143.94-72.54v-162.2c0 75.47 70.65 114.84 143.94 72.53l652.13-376.5c88.53-51.11 162.96-157.63 162.96-259.84z"/><path class="fil0" d="M148.91 2094L857 2506.47c47.65 27.75 123.58-9.07 123.42-68.7l-1.21-420.55c-.28-96.63-61.39-202.35-145.96-249.09l-191.42-105.79-450.17 259.91c-51.1 29.5-71.18 104.8-42.75 171.75z"/><path class="fil1" d="M0 825.97v-162.2c0-102.22 74.43-208.74 162.96-259.84L815.09 27.42c73.29-42.31 143.94-2.93 143.94 72.53v162.2c0-75.47-70.65-114.84-143.94-72.53L162.96 566.13C74.43 617.23 0 723.75 0 825.97zm128.73 1257.94C62.76 2034.94 0 1920.1 0 1835.2v-889c0-102.22 74.43-208.73 162.96-259.84l652.13-376.51c73.29-42.3 143.94-2.93 143.94 72.54v896.85c0 124.32-63.59 214.94-216.69 303.34l-570.86 329.57c-51.1 29.5-71.17 104.8-42.75 171.75z"/></g></g></svg>